<svg width="113" height="114" viewBox="0 0 113 114" fill="none" xmlns="http://www.w3.org/2000/svg">
<path d="M113 113.625H82.75L44.25 60.5C42.8333 60.5833 41.5417 60.6667 40.375 60.75C39.2917 60.75 38.2917 60.75 37.375 60.75C36.625 60.75 35.8333 60.75 35 60.75C34.1667 60.6667 33.2917 60.5833 32.375 60.5V93.5C32.375 97.5 32.625 100.667 33.125 103C33.7083 105.25 34.5 106.958 35.5 108.125C36.5833 109.208 37.8333 109.875 39.25 110.125C40.75 110.375 42.4167 110.5 44.25 110.5H48.75V113.625H0V110.5H4.375C9.04167 110.5 12.4583 108.958 14.625 105.875C15.7917 104.042 16.375 99.9167 16.375 93.5V20.125C16.375 13.125 15.5833 8.70833 14 6.875C11.8333 4.375 8.625 3.125 4.375 3.125H0V0H41.375C47.4583 0 52.7083 0.25 57.125 0.75C61.5417 1.16667 65.1667 1.83333 68 2.75C70.8333 3.66667 73.5 4.95833 76 6.625C78.5 8.20833 80.6667 10.1667 82.5 12.5C84.4167 14.75 85.9167 17.2917 87 20.125C88.0833 22.9583 88.625 26 88.625 29.25C88.625 36.3333 86.375 42.4167 81.875 47.5C77.375 52.5833 70.3333 56.2083 60.75 58.375L84.125 90.875C86.875 94.625 89.2917 97.7083 91.375 100.125C93.5417 102.542 95.6667 104.458 97.75 105.875C99.9167 107.292 102.167 108.333 104.5 109C106.917 109.667 109.75 110.167 113 110.5V113.625ZM32.375 55.25C33.4583 55.25 34.375 55.2917 35.125 55.375C35.9583 55.375 36.625 55.375 37.125 55.375C42.5417 55.375 47.2917 54.75 51.375 53.5C55.4583 52.25 58.875 50.5 61.625 48.25C64.375 46 66.4167 43.375 67.75 40.375C69.1667 37.2917 69.875 33.9583 69.875 30.375C69.875 26.875 69.2917 23.6667 68.125 20.75C66.9583 17.75 65.2917 15.2083 63.125 13.125C60.9583 10.9583 58.375 9.29167 55.375 8.125C52.375 6.95833 49.0833 6.375 45.5 6.375C42.0833 6.375 37.7083 6.91667 32.375 8V55.25Z" fill="#957BF8"/>
</svg>
